<svg width="320" height="31" viewBox="0 0 320 31" fill="none" xmlns="http://www.w3.org/2000/svg">
<path id="Yoloket : YOLO + Croket" d="M11.84 30C10.24 30 9.14667 29.6933 8.56 29.08C7.97333 28.44 7.68 27.4667 7.68 26.16C7.68 25.7067 7.70667 24.9733 7.76 23.96C7.81333 22.9467 7.93333 21.3733 8.12 19.24C7.90667 18.84 7.72 18.4933 7.56 18.2C7.4 17.9067 7.24 17.6 7.08 17.28C6.92 16.96 6.74667 16.5867 6.56 16.16C6.37333 15.7333 6.13333 15.2 5.84 14.56C5.38667 13.5733 4.86667 12.4267 4.28 11.12C3.72 9.81333 3.17333 8.56 2.64 7.36C2.10667 6.13333 1.65333 5.05333 1.28 4.12C0.933333 3.18667 0.76 2.6 0.76 2.36C0.76 1.8 1.65333 1.52 3.44 1.52C4.56 1.52 5.45333 1.64 6.12 1.88C6.81333 2.09333 7.37333 2.4 7.8 2.8C8.22667 3.17333 8.54667 3.62667 8.76 4.16C8.97333 4.66667 9.17333 5.21333 9.36 5.8C9.6 6.57333 9.77333 7.14667 9.88 7.52C9.98667 7.89333 10.0667 8.2 10.12 8.44C10.2 8.68 10.28 8.92 10.36 9.16C10.44 9.37333 10.5467 9.72 10.68 10.2C10.84 10.68 11.0533 11.3467 11.32 12.2C11.5867 13.0533 11.96 14.2267 12.44 15.72C13.2133 14.0933 13.8267 12.7733 14.28 11.76C14.76 10.7467 15.1733 9.81333 15.52 8.96C15.8667 8.08 16.1867 7.18667 16.48 6.28C16.8 5.34667 17.2 4.17333 17.68 2.76C17.84 2.25333 18 1.93333 18.16 1.8C18.3467 1.64 18.6267 1.56 19 1.56C19.1333 1.56 19.4933 1.58667 20.08 1.64C20.6933 1.66667 21.32 1.76 21.96 1.92C22.6267 2.08 23.2267 2.33333 23.76 2.68C24.2933 3.02667 24.56 3.49333 24.56 4.08C24.56 4.53333 24.4 5.17333 24.08 6C23.7867 6.82667 23.3867 7.76 22.88 8.8C22.4 9.81333 21.8267 10.8933 21.16 12.04C20.52 13.1867 19.8533 14.3067 19.16 15.4C18.4667 16.4933 17.7733 17.5067 17.08 18.44C16.4133 19.3467 15.8 20.0933 15.24 20.68C15.2133 21.32 15.1733 22.08 15.12 22.96C15.0933 23.84 15.04 24.72 14.96 25.6C14.9067 26.4533 14.8533 27.24 14.8 27.96C14.7467 28.6533 14.7067 29.1333 14.68 29.4C14.6533 29.6133 14.6 29.7733 14.52 29.88C14.44 29.96 14.28 30 14.04 30H11.84ZM32.9828 30.4C31.1428 30.4 29.6095 30.1467 28.3828 29.64C27.1828 29.1067 26.2228 28.3867 25.5028 27.48C24.7828 26.5733 24.2761 25.52 23.9828 24.32C23.6895 23.0933 23.5428 21.7867 23.5428 20.4C23.5428 18.8 23.7295 17.24 24.1028 15.72C24.5028 14.1733 25.1695 12.8 26.1028 11.6C27.0361 10.4 28.2628 9.44 29.7828 8.72C31.3295 7.97333 33.2495 7.6 35.5428 7.6C38.9028 7.6 41.3028 8.42667 42.7428 10.08C44.2095 11.7067 44.9428 14 44.9428 16.96C44.9428 17.7867 44.8761 18.7067 44.7428 19.72C44.6361 20.7067 44.4095 21.6933 44.0628 22.68C43.7428 23.6667 43.2895 24.6267 42.7028 25.56C42.1428 26.4933 41.4228 27.32 40.5428 28.04C39.6628 28.76 38.5961 29.3333 37.3428 29.76C36.1161 30.1867 34.6628 30.4 32.9828 30.4ZM34.8628 12.92C33.8495 12.92 33.0361 13.1867 32.4228 13.72C31.8361 14.2267 31.3828 14.8533 31.0628 15.6C30.7695 16.32 30.5695 17.0933 30.4628 17.92C30.3828 18.72 30.3428 19.4 30.3428 19.96C30.3428 21.72 30.6228 23.0133 31.1828 23.84C31.7428 24.6667 32.5428 25.08 33.5828 25.08C34.5161 25.08 35.2761 24.7867 35.8628 24.2C36.4761 23.6133 36.9428 22.9067 37.2628 22.08C37.6095 21.2533 37.8361 20.3867 37.9428 19.48C38.0761 18.5733 38.1428 17.8133 38.1428 17.2C38.1428 15.8667 37.8895 14.8267 37.3828 14.08C36.9028 13.3067 36.0628 12.92 34.8628 12.92ZM52.5691 30.36C50.9157 30.36 49.7291 29.92 49.0091 29.04C48.2891 28.16 47.9291 26.7067 47.9291 24.68C47.9291 24.36 47.9424 23.96 47.9691 23.48C48.0224 23 48.0757 22.3867 48.1291 21.64C48.2091 20.8667 48.3024 19.92 48.4091 18.8C48.5157 17.68 48.6224 16.32 48.7291 14.72C48.8624 13.12 48.9957 11.24 49.1291 9.08C49.2891 6.92 49.4491 4.41333 49.6091 1.56C49.6357 0.973332 49.7024 0.626665 49.8091 0.519998C49.8891 0.439999 50.1024 0.4 50.4491 0.4H52.0091C52.8091 0.4 53.4757 0.493333 54.0091 0.679998C54.5424 0.866666 54.9691 1.12 55.2891 1.44C55.6091 1.76 55.8357 2.13333 55.9691 2.56C56.1024 2.96 56.1691 3.38667 56.1691 3.84C56.1691 4.37333 56.1291 5.14667 56.0491 6.16C55.9957 7.14667 55.9157 8.26667 55.8091 9.52C55.7024 10.7733 55.5957 12.08 55.4891 13.44C55.3824 14.8 55.2757 16.1067 55.1691 17.36C55.0624 18.5867 54.9691 19.6933 54.8891 20.68C54.8357 21.6667 54.8091 22.4133 54.8091 22.92C54.8091 23.6133 54.9291 24.1067 55.1691 24.4C55.4357 24.6933 55.7157 24.9067 56.0091 25.04C56.3024 25.1467 56.5691 25.2267 56.8091 25.28C57.0757 25.3067 57.2091 25.3867 57.2091 25.52C57.2091 26.1067 57.1424 26.6933 57.0091 27.28C56.8757 27.84 56.6357 28.36 56.2891 28.84C55.9424 29.2933 55.4624 29.6667 54.8491 29.96C54.2624 30.2267 53.5024 30.36 52.5691 30.36ZM68.9594 30.4C67.1194 30.4 65.586 30.1467 64.3594 29.64C63.1594 29.1067 62.1994 28.3867 61.4794 27.48C60.7594 26.5733 60.2527 25.52 59.9594 24.32C59.666 23.0933 59.5194 21.7867 59.5194 20.4C59.5194 18.8 59.706 17.24 60.0794 15.72C60.4794 14.1733 61.146 12.8 62.0794 11.6C63.0127 10.4 64.2394 9.44 65.7594 8.72C67.306 7.97333 69.226 7.6 71.5194 7.6C74.8794 7.6 77.2794 8.42667 78.7194 10.08C80.186 11.7067 80.9194 14 80.9194 16.96C80.9194 17.7867 80.8527 18.7067 80.7194 19.72C80.6127 20.7067 80.386 21.6933 80.0394 22.68C79.7194 23.6667 79.266 24.6267 78.6794 25.56C78.1194 26.4933 77.3994 27.32 76.5194 28.04C75.6394 28.76 74.5727 29.3333 73.3194 29.76C72.0927 30.1867 70.6394 30.4 68.9594 30.4ZM70.8394 12.92C69.826 12.92 69.0127 13.1867 68.3994 13.72C67.8127 14.2267 67.3594 14.8533 67.0394 15.6C66.746 16.32 66.546 17.0933 66.4394 17.92C66.3594 18.72 66.3194 19.4 66.3194 19.96C66.3194 21.72 66.5994 23.0133 67.1594 23.84C67.7194 24.6667 68.5194 25.08 69.5594 25.08C70.4927 25.08 71.2527 24.7867 71.8394 24.2C72.4527 23.6133 72.9194 22.9067 73.2394 22.08C73.586 21.2533 73.8127 20.3867 73.9194 19.48C74.0527 18.5733 74.1194 17.8133 74.1194 17.2C74.1194 15.8667 73.866 14.8267 73.3594 14.08C72.8794 13.3067 72.0394 12.92 70.8394 12.92ZM102.906 26.76C102.906 26.8933 102.839 27.16 102.706 27.56C102.572 27.96 102.359 28.3733 102.066 28.8C101.772 29.2267 101.399 29.6 100.946 29.92C100.519 30.24 99.999 30.4 99.3856 30.4C98.6656 30.4 97.9456 30.16 97.2256 29.68C96.5323 29.2 95.839 28.5467 95.1456 27.72C94.4523 26.8933 93.7456 25.92 93.0256 24.8C92.3323 23.6533 91.6256 22.4133 90.9056 21.08C90.799 22.4933 90.6923 23.88 90.5856 25.24C90.479 26.6 90.3723 27.92 90.2656 29.2C90.239 29.52 90.1723 29.7333 90.0656 29.84C89.959 29.9467 89.7323 30 89.3856 30H87.9456C87.119 30 86.439 29.92 85.9056 29.76C85.3723 29.5733 84.959 29.32 84.6656 29C84.3723 28.68 84.159 28.28 84.0256 27.8C83.919 27.2933 83.8656 26.72 83.8656 26.08C83.8656 25.76 83.879 25.4267 83.9056 25.08C83.9323 24.7333 83.9723 24.24 84.0256 23.6C84.079 22.96 84.1456 22.12 84.2256 21.08C84.3323 20.04 84.4523 18.6667 84.5856 16.96C84.719 15.2533 84.8656 13.16 85.0256 10.68C85.2123 8.17333 85.4123 5.13333 85.6256 1.56C85.6523 0.973332 85.719 0.626665 85.8256 0.519998C85.9056 0.439999 86.119 0.4 86.4656 0.4H88.0256C88.8523 0.4 89.5323 0.493333 90.0656 0.679998C90.599 0.866666 91.0256 1.12 91.3456 1.44C91.6656 1.76 91.879 2.13333 91.9856 2.56C92.119 2.98667 92.1856 3.42667 92.1856 3.88C92.1856 4.14667 92.159 4.6 92.1056 5.24C92.079 5.85333 92.039 6.61333 91.9856 7.52C91.9323 8.4 91.8523 9.4 91.7456 10.52C91.6656 11.64 91.5856 12.8133 91.5056 14.04L97.9056 8.2C98.1456 7.98667 98.359 7.84 98.5456 7.76C98.759 7.68 98.919 7.64 99.0256 7.64C99.319 7.64 99.639 7.82667 99.9856 8.2C100.332 8.57333 100.652 9.01333 100.946 9.52C101.266 10 101.519 10.5067 101.706 11.04C101.919 11.5467 102.026 11.96 102.026 12.28C102.026 13.0533 101.399 13.8667 100.146 14.72C98.919 15.5733 97.0523 16.5333 94.5456 17.6C95.6656 18.8533 96.7323 20 97.7456 21.04C98.759 22.08 99.639 23 100.386 23.8C101.159 24.6 101.772 25.2533 102.226 25.76C102.679 26.2667 102.906 26.6 102.906 26.76ZM114.2 30.4C113.027 30.4 111.854 30.2533 110.68 29.96C109.534 29.6667 108.494 29.16 107.56 28.44C106.654 27.72 105.907 26.76 105.32 25.56C104.734 24.36 104.44 22.8533 104.44 21.04C104.44 20.3733 104.494 19.5733 104.6 18.64C104.707 17.7067 104.907 16.7467 105.2 15.76C105.52 14.7733 105.947 13.8 106.48 12.84C107.04 11.8533 107.76 10.9733 108.64 10.2C109.52 9.42666 110.587 8.8 111.84 8.32C113.094 7.84 114.587 7.6 116.32 7.6C117.707 7.6 118.88 7.76 119.84 8.08C120.8 8.4 121.574 8.84 122.16 9.4C122.747 9.93333 123.174 10.56 123.44 11.28C123.707 12 123.84 12.7733 123.84 13.6C123.84 14.8267 123.587 15.8667 123.08 16.72C122.6 17.5733 121.96 18.2933 121.16 18.88C120.387 19.44 119.52 19.88 118.56 20.2C117.6 20.52 116.654 20.7733 115.72 20.96C114.787 21.12 113.92 21.2267 113.12 21.28C112.347 21.3067 111.747 21.32 111.32 21.32C111.32 21.8267 111.387 22.3333 111.52 22.84C111.68 23.32 111.907 23.7467 112.2 24.12C112.494 24.4933 112.88 24.8 113.36 25.04C113.84 25.28 114.427 25.4 115.12 25.4C115.814 25.4 116.347 25.2933 116.72 25.08C117.12 24.84 117.44 24.5867 117.68 24.32C117.92 24.0267 118.12 23.7733 118.28 23.56C118.467 23.32 118.707 23.2 119 23.2C119.134 23.2 119.36 23.24 119.68 23.32C120.027 23.3733 120.374 23.5067 120.72 23.72C121.067 23.9333 121.374 24.2267 121.64 24.6C121.907 24.9733 122.04 25.4533 122.04 26.04C122.04 26.8133 121.8 27.48 121.32 28.04C120.84 28.6 120.214 29.0533 119.44 29.4C118.694 29.7467 117.854 30 116.92 30.16C115.987 30.32 115.08 30.4 114.2 30.4ZM114.96 12.92C114.374 12.92 113.867 13.0933 113.44 13.44C113.04 13.76 112.694 14.1733 112.4 14.68C112.134 15.1867 111.92 15.7467 111.76 16.36C111.627 16.9733 111.52 17.56 111.44 18.12C113.094 18.0933 114.427 17.8133 115.44 17.28C116.48 16.7467 117 15.9867 117 15C117 14.4667 116.827 13.9867 116.48 13.56C116.16 13.1333 115.654 12.92 114.96 12.92ZM134.849 13.4C134.769 14.4133 134.676 15.4133 134.569 16.4C134.489 17.3867 134.409 18.32 134.329 19.2C134.249 20.08 134.183 20.8667 134.129 21.56C134.103 22.2533 134.089 22.7867 134.089 23.16C134.089 23.8533 134.169 24.32 134.329 24.56C134.489 24.7733 134.756 24.88 135.129 24.88C135.423 24.88 135.676 24.8267 135.889 24.72C136.103 24.6133 136.303 24.4933 136.489 24.36C136.676 24.2267 136.836 24.1067 136.969 24C137.129 23.8933 137.303 23.84 137.489 23.84C137.676 23.84 137.849 23.9467 138.009 24.16C138.169 24.3733 138.249 24.8667 138.249 25.64C138.249 27.1067 137.849 28.2667 137.049 29.12C136.249 29.9733 134.876 30.4 132.929 30.4C131.009 30.4 129.583 29.96 128.649 29.08C127.743 28.1733 127.289 26.8 127.289 24.96C127.289 24.56 127.303 24.0933 127.329 23.56C127.383 23 127.449 22.28 127.529 21.4C127.609 20.52 127.703 19.44 127.809 18.16C127.943 16.88 128.076 15.2933 128.209 13.4H126.089C125.876 13.4 125.743 13.36 125.689 13.28C125.663 13.1733 125.649 13.0267 125.649 12.84L125.769 10.8C125.796 10.4533 125.836 10.12 125.889 9.8C125.969 9.45333 126.103 9.14667 126.289 8.88C126.503 8.61333 126.796 8.4 127.169 8.24C127.543 8.08 128.036 8 128.649 8C128.836 7.52 129.049 6.94667 129.289 6.28C129.529 5.61333 129.769 4.97333 130.009 4.36C130.249 3.72 130.476 3.18667 130.689 2.76C130.929 2.33333 131.143 2.12 131.329 2.12H132.489C133.609 2.12 134.383 2.46667 134.809 3.16C135.236 3.85333 135.449 4.68 135.449 5.64C135.449 6.17333 135.409 6.96 135.329 8H139.529C139.956 8 140.169 8.18667 140.169 8.56L140.009 10.72C139.956 11.52 139.729 12.1733 139.329 12.68C138.956 13.16 138.169 13.4 136.969 13.4H134.849ZM149.232 25.55C149.932 25.55 150.432 25.725 150.732 26.075C151.032 26.4083 151.182 26.8833 151.182 27.5C151.182 27.75 151.149 28.0417 151.082 28.375C151.015 28.6917 150.89 28.9917 150.707 29.275C150.54 29.5417 150.299 29.775 149.982 29.975C149.665 30.1583 149.249 30.25 148.732 30.25C147.965 30.25 147.449 30.0583 147.182 29.675C146.915 29.275 146.782 28.7833 146.782 28.2C146.782 27.8667 146.824 27.5417 146.907 27.225C146.99 26.9083 147.124 26.625 147.307 26.375C147.49 26.125 147.74 25.925 148.057 25.775C148.374 25.625 148.765 25.55 149.232 25.55ZM149.857 18.15C150.557 18.15 151.057 18.325 151.357 18.675C151.657 19.0083 151.807 19.4833 151.807 20.1C151.807 20.35 151.774 20.6417 151.707 20.975C151.64 21.2917 151.515 21.5917 151.332 21.875C151.165 22.1417 150.924 22.375 150.607 22.575C150.29 22.7583 149.874 22.85 149.357 22.85C148.59 22.85 148.074 22.6583 147.807 22.275C147.54 21.875 147.407 21.3833 147.407 20.8C147.407 20.4667 147.449 20.1417 147.532 19.825C147.615 19.5083 147.749 19.225 147.932 18.975C148.115 18.725 148.365 18.525 148.682 18.375C148.999 18.225 149.39 18.15 149.857 18.15ZM164.905 30C163.905 30 163.222 29.8083 162.855 29.425C162.488 29.025 162.305 28.4167 162.305 27.6C162.305 27.3167 162.322 26.8583 162.355 26.225C162.388 25.5917 162.463 24.6083 162.58 23.275C162.447 23.025 162.33 22.8083 162.23 22.625C162.13 22.4417 162.03 22.25 161.93 22.05C161.83 21.85 161.722 21.6167 161.605 21.35C161.488 21.0833 161.338 20.75 161.155 20.35C160.872 19.7333 160.547 19.0167 160.18 18.2C159.83 17.3833 159.488 16.6 159.155 15.85C158.822 15.0833 158.538 14.4083 158.305 13.825C158.088 13.2417 157.98 12.875 157.98 12.725C157.98 12.375 158.538 12.2 159.655 12.2C160.355 12.2 160.913 12.275 161.33 12.425C161.763 12.5583 162.113 12.75 162.38 13C162.647 13.2333 162.847 13.5167 162.98 13.85C163.113 14.1667 163.238 14.5083 163.355 14.875C163.505 15.3583 163.613 15.7167 163.68 15.95C163.747 16.1833 163.797 16.375 163.83 16.525C163.88 16.675 163.93 16.825 163.98 16.975C164.03 17.1083 164.097 17.325 164.18 17.625C164.28 17.925 164.413 18.3417 164.58 18.875C164.747 19.4083 164.98 20.1417 165.28 21.075C165.763 20.0583 166.147 19.2333 166.43 18.6C166.73 17.9667 166.988 17.3833 167.205 16.85C167.422 16.3 167.622 15.7417 167.805 15.175C168.005 14.5917 168.255 13.8583 168.555 12.975C168.655 12.6583 168.755 12.4583 168.855 12.375C168.972 12.275 169.147 12.225 169.38 12.225C169.463 12.225 169.688 12.2417 170.055 12.275C170.438 12.2917 170.83 12.35 171.23 12.45C171.647 12.55 172.022 12.7083 172.355 12.925C172.688 13.1417 172.855 13.4333 172.855 13.8C172.855 14.0833 172.755 14.4833 172.555 15C172.372 15.5167 172.122 16.1 171.805 16.75C171.505 17.3833 171.147 18.0583 170.73 18.775C170.33 19.4917 169.913 20.1917 169.48 20.875C169.047 21.5583 168.613 22.1917 168.18 22.775C167.763 23.3417 167.38 23.8083 167.03 24.175C167.013 24.575 166.988 25.05 166.955 25.6C166.938 26.15 166.905 26.7 166.855 27.25C166.822 27.7833 166.788 28.275 166.755 28.725C166.722 29.1583 166.697 29.4583 166.68 29.625C166.663 29.7583 166.63 29.8583 166.58 29.925C166.53 29.975 166.43 30 166.28 30H164.905ZM182.4 11.975C183.617 11.975 184.659 12.15 185.525 12.5C186.392 12.8333 187.1 13.3333 187.65 14C188.2 14.65 188.6 15.45 188.85 16.4C189.1 17.3333 189.225 18.4 189.225 19.6C189.225 20.2667 189.175 20.9917 189.075 21.775C188.992 22.5583 188.825 23.35 188.575 24.15C188.342 24.9333 188.017 25.6917 187.6 26.425C187.184 27.1583 186.642 27.8083 185.975 28.375C185.325 28.9417 184.542 29.4 183.625 29.75C182.709 30.0833 181.625 30.25 180.375 30.25C178.992 30.25 177.842 30.0417 176.925 29.625C176.025 29.2083 175.3 28.65 174.75 27.95C174.217 27.2333 173.834 26.3917 173.6 25.425C173.384 24.4583 173.275 23.425 173.275 22.325C173.275 21.025 173.425 19.7583 173.725 18.525C174.025 17.275 174.525 16.1667 175.225 15.2C175.942 14.2333 176.884 13.4583 178.05 12.875C179.217 12.275 180.667 11.975 182.4 11.975ZM181.875 15.85C181.292 15.85 180.784 15.9583 180.35 16.175C179.934 16.375 179.575 16.65 179.275 17C178.992 17.35 178.759 17.7417 178.575 18.175C178.409 18.6083 178.275 19.0583 178.175 19.525C178.075 19.975 178.009 20.4167 177.975 20.85C177.942 21.2667 177.925 21.6417 177.925 21.975C177.925 23.4917 178.175 24.6 178.675 25.3C179.192 26 179.917 26.35 180.85 26.35C181.617 26.35 182.242 26.1083 182.725 25.625C183.209 25.125 183.584 24.5333 183.85 23.85C184.134 23.15 184.325 22.4333 184.425 21.7C184.525 20.95 184.575 20.3167 184.575 19.8C184.575 18.5833 184.367 17.625 183.95 16.925C183.534 16.2083 182.842 15.85 181.875 15.85ZM193.924 30C192.99 30 192.324 29.8167 191.924 29.45C191.524 29.0833 191.324 28.5583 191.324 27.875C191.324 27.5417 191.349 26.975 191.399 26.175C191.449 25.3583 191.515 24.4333 191.599 23.4C191.682 22.3667 191.765 21.275 191.849 20.125C191.932 18.975 192.015 17.8917 192.099 16.875C192.182 15.8583 192.249 14.9667 192.299 14.2C192.349 13.4333 192.374 12.9083 192.374 12.625C192.374 12.375 192.507 12.25 192.774 12.25H194.149C195.082 12.25 195.724 12.4333 196.074 12.8C196.44 13.15 196.624 13.675 196.624 14.375C196.624 14.4583 196.615 14.5333 196.599 14.6C196.599 14.6667 196.599 14.7417 196.599 14.825L195.774 26.5H200.274C200.374 26.5 200.465 26.5333 200.549 26.6C200.632 26.65 200.674 26.7333 200.674 26.85L200.574 28.325C200.54 28.825 200.399 29.2333 200.149 29.55C199.915 29.85 199.424 30 198.674 30H193.924ZM211.038 11.975C212.255 11.975 213.296 12.15 214.163 12.5C215.03 12.8333 215.738 13.3333 216.288 14C216.838 14.65 217.238 15.45 217.488 16.4C217.738 17.3333 217.863 18.4 217.863 19.6C217.863 20.2667 217.813 20.9917 217.713 21.775C217.63 22.5583 217.463 23.35 217.213 24.15C216.98 24.9333 216.655 25.6917 216.238 26.425C215.821 27.1583 215.28 27.8083 214.613 28.375C213.963 28.9417 213.18 29.4 212.263 29.75C211.346 30.0833 210.263 30.25 209.013 30.25C207.63 30.25 206.48 30.0417 205.563 29.625C204.663 29.2083 203.938 28.65 203.388 27.95C202.855 27.2333 202.471 26.3917 202.238 25.425C202.021 24.4583 201.913 23.425 201.913 22.325C201.913 21.025 202.063 19.7583 202.363 18.525C202.663 17.275 203.163 16.1667 203.863 15.2C204.58 14.2333 205.521 13.4583 206.688 12.875C207.855 12.275 209.305 11.975 211.038 11.975ZM210.513 15.85C209.93 15.85 209.421 15.9583 208.988 16.175C208.571 16.375 208.213 16.65 207.913 17C207.63 17.35 207.396 17.7417 207.213 18.175C207.046 18.6083 206.913 19.0583 206.813 19.525C206.713 19.975 206.646 20.4167 206.613 20.85C206.58 21.2667 206.563 21.6417 206.563 21.975C206.563 23.4917 206.813 24.6 207.313 25.3C207.83 26 208.555 26.35 209.488 26.35C210.255 26.35 210.88 26.1083 211.363 25.625C211.846 25.125 212.221 24.5333 212.488 23.85C212.771 23.15 212.963 22.4333 213.063 21.7C213.163 20.95 213.213 20.3167 213.213 19.8C213.213 18.5833 213.005 17.625 212.588 16.925C212.171 16.2083 211.48 15.85 210.513 15.85ZM230.708 27.425C230.208 27.425 229.791 27.375 229.458 27.275C229.124 27.1583 228.866 27 228.683 26.8C228.499 26.6 228.366 26.3583 228.283 26.075C228.216 25.775 228.183 25.4333 228.183 25.05C228.183 24.8 228.191 24.55 228.208 24.3C228.224 24.05 228.258 23.65 228.308 23.1H224.983C224.799 23.1 224.708 23.0083 224.708 22.825C224.708 22.7917 224.708 22.7583 224.708 22.725C224.708 22.6917 224.708 22.6417 224.708 22.575C224.708 22.5083 224.708 22.4167 224.708 22.3C224.724 22.1833 224.741 22.0167 224.758 21.8C224.774 21.5833 224.799 21.375 224.833 21.175C224.883 20.9583 224.966 20.7667 225.083 20.6C225.216 20.4333 225.399 20.3 225.633 20.2C225.866 20.1 226.174 20.05 226.558 20.05H228.558C228.591 19.5667 228.633 19.0333 228.683 18.45C228.733 17.8667 228.783 17.2 228.833 16.45C228.849 16.0833 228.883 15.875 228.933 15.825C228.999 15.7583 229.158 15.725 229.408 15.725C229.924 15.725 230.341 15.775 230.658 15.875C230.991 15.975 231.249 16.125 231.433 16.325C231.633 16.525 231.766 16.7667 231.833 17.05C231.916 17.3333 231.958 17.65 231.958 18C231.958 18.2333 231.949 18.4917 231.933 18.775C231.916 19.0583 231.883 19.4833 231.833 20.05H235.108C235.208 20.05 235.299 20.0833 235.383 20.15C235.466 20.2 235.508 20.2833 235.508 20.4L235.433 21.425C235.399 21.925 235.258 22.3333 235.008 22.65C234.774 22.95 234.283 23.1 233.533 23.1H231.558L231.258 26.925C231.241 27.125 231.199 27.2583 231.133 27.325C231.066 27.3917 230.924 27.425 230.708 27.425ZM250.24 26.35C250.923 26.35 251.498 26.25 251.965 26.05C252.448 25.85 252.857 25.625 253.19 25.375C253.523 25.125 253.815 24.9 254.065 24.7C254.332 24.5 254.598 24.4 254.865 24.4C255.198 24.4 255.365 24.65 255.365 25.15C255.365 25.4167 255.332 25.7417 255.265 26.125C255.198 26.4917 255.107 26.9083 254.99 27.375C254.923 27.6583 254.757 27.9667 254.49 28.3C254.24 28.6333 253.89 28.95 253.44 29.25C252.99 29.5333 252.432 29.775 251.765 29.975C251.115 30.1583 250.365 30.25 249.515 30.25C248.665 30.25 247.815 30.125 246.965 29.875C246.115 29.625 245.357 29.2 244.69 28.6C244.023 28 243.482 27.1917 243.065 26.175C242.648 25.1583 242.44 23.8833 242.44 22.35C242.44 21.8 242.473 21.1667 242.54 20.45C242.623 19.7167 242.773 18.9667 242.99 18.2C243.207 17.4333 243.507 16.6833 243.89 15.95C244.29 15.2 244.798 14.5333 245.415 13.95C246.032 13.3667 246.782 12.9 247.665 12.55C248.565 12.1833 249.632 12 250.865 12C251.848 12 252.698 12.1167 253.415 12.35C254.148 12.5833 254.748 12.9083 255.215 13.325C255.698 13.725 256.048 14.2 256.265 14.75C256.498 15.3 256.615 15.8833 256.615 16.5C256.615 17.5667 256.298 18.35 255.665 18.85C255.048 19.3333 254.165 19.575 253.015 19.575C252.648 19.575 252.415 19.55 252.315 19.5C252.232 19.4333 252.19 19.3083 252.19 19.125C252.173 18.5583 252.157 18.0667 252.14 17.65C252.123 17.2333 252.065 16.8917 251.965 16.625C251.865 16.3417 251.707 16.1417 251.49 16.025C251.29 15.8917 251.007 15.825 250.64 15.825C250.107 15.825 249.648 15.9417 249.265 16.175C248.898 16.3917 248.582 16.6833 248.315 17.05C248.065 17.4 247.857 17.8 247.69 18.25C247.54 18.7 247.415 19.1583 247.315 19.625C247.232 20.0917 247.173 20.5417 247.14 20.975C247.123 21.4083 247.115 21.7833 247.115 22.1C247.115 23.6333 247.365 24.725 247.865 25.375C248.382 26.025 249.173 26.35 250.24 26.35ZM265.995 22.225C265.895 22.225 265.778 22.225 265.645 22.225C265.528 22.2083 265.411 22.1917 265.295 22.175C265.178 22.1417 265.078 22.1083 264.995 22.075C264.911 22.025 264.87 21.9667 264.87 21.9C264.87 21.6833 264.878 21.4833 264.895 21.3C264.911 21.1167 264.92 20.925 264.92 20.725C264.92 20.3583 264.87 20.0583 264.77 19.825C264.67 19.5917 264.47 19.475 264.17 19.475C263.703 19.475 263.311 19.7833 262.995 20.4C262.695 21 262.503 21.9083 262.42 23.125C262.386 23.6583 262.336 24.2667 262.27 24.95C262.22 25.6167 262.17 26.2667 262.12 26.9C262.07 27.5167 262.028 28.0667 261.995 28.55C261.961 29.0333 261.945 29.35 261.945 29.5C261.945 29.6667 261.886 29.7917 261.77 29.875C261.653 29.9583 261.528 30 261.395 30H260.495C259.978 30 259.553 29.95 259.22 29.85C258.903 29.7333 258.645 29.575 258.445 29.375C258.261 29.175 258.128 28.9333 258.045 28.65C257.978 28.35 257.945 28.0083 257.945 27.625C257.945 27.375 257.953 27.025 257.97 26.575C258.003 26.1083 258.053 25.475 258.12 24.675C258.186 23.8583 258.261 22.8333 258.345 21.6C258.445 20.35 258.561 18.8083 258.695 16.975C258.728 16.4917 258.903 16.25 259.22 16.25H260.195C260.661 16.25 261.053 16.3 261.37 16.4C261.686 16.5 261.945 16.6417 262.145 16.825C262.345 16.9917 262.486 17.1917 262.57 17.425C262.67 17.6583 262.736 17.9 262.77 18.15C262.97 17.7667 263.203 17.4417 263.47 17.175C263.753 16.8917 264.045 16.6667 264.345 16.5C264.645 16.3167 264.953 16.1917 265.27 16.125C265.586 16.0417 265.878 16 266.145 16C266.461 16 266.778 16.0583 267.095 16.175C267.428 16.2917 267.728 16.4667 267.995 16.7C268.261 16.9333 268.47 17.2333 268.62 17.6C268.786 17.9667 268.87 18.4 268.87 18.9C268.87 19.35 268.803 19.775 268.67 20.175C268.536 20.575 268.345 20.9333 268.095 21.25C267.845 21.55 267.536 21.7917 267.17 21.975C266.82 22.1417 266.428 22.225 265.995 22.225ZM275.482 30.25C274.332 30.25 273.374 30.0917 272.607 29.775C271.857 29.4417 271.257 28.9917 270.807 28.425C270.357 27.8583 270.041 27.2 269.857 26.45C269.674 25.6833 269.582 24.8667 269.582 24C269.582 23 269.699 22.025 269.932 21.075C270.182 20.1083 270.599 19.25 271.182 18.5C271.766 17.75 272.532 17.15 273.482 16.7C274.449 16.2333 275.649 16 277.082 16C279.182 16 280.682 16.5167 281.582 17.55C282.499 18.5667 282.957 20 282.957 21.85C282.957 22.3667 282.916 22.9417 282.832 23.575C282.766 24.1917 282.624 24.8083 282.407 25.425C282.207 26.0417 281.924 26.6417 281.557 27.225C281.207 27.8083 280.757 28.325 280.207 28.775C279.657 29.225 278.991 29.5833 278.207 29.85C277.441 30.1167 276.532 30.25 275.482 30.25ZM276.657 19.325C276.024 19.325 275.516 19.4917 275.132 19.825C274.766 20.1417 274.482 20.5333 274.282 21C274.099 21.45 273.974 21.9333 273.907 22.45C273.857 22.95 273.832 23.375 273.832 23.725C273.832 24.825 274.007 25.6333 274.357 26.15C274.707 26.6667 275.207 26.925 275.857 26.925C276.441 26.925 276.916 26.7417 277.282 26.375C277.666 26.0083 277.957 25.5667 278.157 25.05C278.374 24.5333 278.516 23.9917 278.582 23.425C278.666 22.8583 278.707 22.3833 278.707 22C278.707 21.1667 278.549 20.5167 278.232 20.05C277.932 19.5667 277.407 19.325 276.657 19.325ZM296.699 27.975C296.699 28.0583 296.657 28.225 296.574 28.475C296.49 28.725 296.357 28.9833 296.174 29.25C295.99 29.5167 295.757 29.75 295.474 29.95C295.207 30.15 294.882 30.25 294.499 30.25C294.049 30.25 293.599 30.1 293.149 29.8C292.715 29.5 292.282 29.0917 291.849 28.575C291.415 28.0583 290.974 27.45 290.524 26.75C290.09 26.0333 289.649 25.2583 289.199 24.425C289.132 25.3083 289.065 26.175 288.999 27.025C288.932 27.875 288.865 28.7 288.799 29.5C288.782 29.7 288.74 29.8333 288.674 29.9C288.607 29.9667 288.465 30 288.249 30H287.349C286.832 30 286.407 29.95 286.074 29.85C285.74 29.7333 285.482 29.575 285.299 29.375C285.115 29.175 284.982 28.925 284.899 28.625C284.832 28.3083 284.799 27.95 284.799 27.55C284.799 27.35 284.807 27.1417 284.824 26.925C284.84 26.7083 284.865 26.4 284.899 26C284.932 25.6 284.974 25.075 285.024 24.425C285.09 23.775 285.165 22.9167 285.249 21.85C285.332 20.7833 285.424 19.475 285.524 17.925C285.64 16.3583 285.765 14.4583 285.899 12.225C285.915 11.8583 285.957 11.6417 286.024 11.575C286.074 11.525 286.207 11.5 286.424 11.5H287.399C287.915 11.5 288.34 11.5583 288.674 11.675C289.007 11.7917 289.274 11.95 289.474 12.15C289.674 12.35 289.807 12.5833 289.874 12.85C289.957 13.1167 289.999 13.3917 289.999 13.675C289.999 13.8417 289.982 14.125 289.949 14.525C289.932 14.9083 289.907 15.3833 289.874 15.95C289.84 16.5 289.79 17.125 289.724 17.825C289.674 18.525 289.624 19.2583 289.574 20.025L293.574 16.375C293.724 16.2417 293.857 16.15 293.974 16.1C294.107 16.05 294.207 16.025 294.274 16.025C294.457 16.025 294.657 16.1417 294.874 16.375C295.09 16.6083 295.29 16.8833 295.474 17.2C295.674 17.5 295.832 17.8167 295.949 18.15C296.082 18.4667 296.149 18.725 296.149 18.925C296.149 19.4083 295.757 19.9167 294.974 20.45C294.207 20.9833 293.04 21.5833 291.474 22.25C292.174 23.0333 292.84 23.75 293.474 24.4C294.107 25.05 294.657 25.625 295.124 26.125C295.607 26.625 295.99 27.0333 296.274 27.35C296.557 27.6667 296.699 27.875 296.699 27.975ZM303.758 30.25C303.025 30.25 302.291 30.1583 301.558 29.975C300.841 29.7917 300.191 29.475 299.608 29.025C299.041 28.575 298.575 27.975 298.208 27.225C297.841 26.475 297.658 25.5333 297.658 24.4C297.658 23.9833 297.691 23.4833 297.758 22.9C297.825 22.3167 297.95 21.7167 298.133 21.1C298.333 20.4833 298.6 19.875 298.933 19.275C299.283 18.6583 299.733 18.1083 300.283 17.625C300.833 17.1417 301.5 16.75 302.283 16.45C303.066 16.15 304 16 305.083 16C305.95 16 306.683 16.1 307.283 16.3C307.883 16.5 308.366 16.775 308.733 17.125C309.1 17.4583 309.366 17.85 309.533 18.3C309.7 18.75 309.783 19.2333 309.783 19.75C309.783 20.5167 309.625 21.1667 309.308 21.7C309.008 22.2333 308.608 22.6833 308.108 23.05C307.625 23.4 307.083 23.675 306.483 23.875C305.883 24.075 305.291 24.2333 304.708 24.35C304.125 24.45 303.583 24.5167 303.083 24.55C302.6 24.5667 302.225 24.575 301.958 24.575C301.958 24.8917 302 25.2083 302.083 25.525C302.183 25.825 302.325 26.0917 302.508 26.325C302.691 26.5583 302.933 26.75 303.233 26.9C303.533 27.05 303.9 27.125 304.333 27.125C304.766 27.125 305.1 27.0583 305.333 26.925C305.583 26.775 305.783 26.6167 305.933 26.45C306.083 26.2667 306.208 26.1083 306.308 25.975C306.425 25.825 306.575 25.75 306.758 25.75C306.841 25.75 306.983 25.775 307.183 25.825C307.4 25.8583 307.616 25.9417 307.833 26.075C308.05 26.2083 308.241 26.3917 308.408 26.625C308.575 26.8583 308.658 27.1583 308.658 27.525C308.658 28.0083 308.508 28.425 308.208 28.775C307.908 29.125 307.516 29.4083 307.033 29.625C306.566 29.8417 306.041 30 305.458 30.1C304.875 30.2 304.308 30.25 303.758 30.25ZM304.233 19.325C303.866 19.325 303.55 19.4333 303.283 19.65C303.033 19.85 302.816 20.1083 302.633 20.425C302.466 20.7417 302.333 21.0917 302.233 21.475C302.15 21.8583 302.083 22.225 302.033 22.575C303.066 22.5583 303.9 22.3833 304.533 22.05C305.183 21.7167 305.508 21.2417 305.508 20.625C305.508 20.2917 305.4 19.9917 305.183 19.725C304.983 19.4583 304.666 19.325 304.233 19.325ZM316.664 19.625C316.614 20.2583 316.555 20.8833 316.489 21.5C316.439 22.1167 316.389 22.7 316.339 23.25C316.289 23.8 316.247 24.2917 316.214 24.725C316.197 25.1583 316.189 25.4917 316.189 25.725C316.189 26.1583 316.239 26.45 316.339 26.6C316.439 26.7333 316.605 26.8 316.839 26.8C317.022 26.8 317.18 26.7667 317.314 26.7C317.447 26.6333 317.572 26.5583 317.689 26.475C317.805 26.3917 317.905 26.3167 317.989 26.25C318.089 26.1833 318.197 26.15 318.314 26.15C318.43 26.15 318.539 26.2167 318.639 26.35C318.739 26.4833 318.789 26.7917 318.789 27.275C318.789 28.1917 318.539 28.9167 318.039 29.45C317.539 29.9833 316.68 30.25 315.464 30.25C314.264 30.25 313.372 29.975 312.789 29.425C312.222 28.8583 311.939 28 311.939 26.85C311.939 26.6 311.947 26.3083 311.964 25.975C311.997 25.625 312.039 25.175 312.089 24.625C312.139 24.075 312.197 23.4 312.264 22.6C312.347 21.8 312.43 20.8083 312.514 19.625H311.189C311.055 19.625 310.972 19.6 310.939 19.55C310.922 19.4833 310.914 19.3917 310.914 19.275L310.989 18C311.005 17.7833 311.03 17.575 311.064 17.375C311.114 17.1583 311.197 16.9667 311.314 16.8C311.447 16.6333 311.63 16.5 311.864 16.4C312.097 16.3 312.405 16.25 312.789 16.25C312.905 15.95 313.039 15.5917 313.189 15.175C313.339 14.7583 313.489 14.3583 313.639 13.975C313.789 13.575 313.93 13.2417 314.064 12.975C314.214 12.7083 314.347 12.575 314.464 12.575H315.189C315.889 12.575 316.372 12.7917 316.639 13.225C316.905 13.6583 317.039 14.175 317.039 14.775C317.039 15.1083 317.014 15.6 316.964 16.25H319.589C319.855 16.25 319.989 16.3667 319.989 16.6L319.889 17.95C319.855 18.45 319.714 18.8583 319.464 19.175C319.23 19.475 318.739 19.625 317.989 19.625H316.664Z" fill="#242424"/>
</svg>
